<?xml version="1.0" encoding="UTF-8" standalone="no"?>
<svg
   class="svglite"
   width="432pt"
   height="288pt"
   viewBox="0 0 432 288"
   version="1.1"
   id="svg173445"
   sodipodi:docname="pele_pirnas_sirnas_normalized_combined.svg"
   inkscape:version="1.2.1 (9c6d41e4, 2022-07-14)"
   inkscape:export-filename="pele_pirnas_sirnas_normalized_combined.png"
   inkscape:export-xdpi="400"
   inkscape:export-ydpi="400"
   xmlns:inkscape="http://www.inkscape.org/namespaces/inkscape"
   xmlns:sodipodi="http://sodipodi.sourceforge.net/DTD/sodipodi-0.dtd"
   xmlns="http://www.w3.org/2000/svg"
   xmlns:svg="http://www.w3.org/2000/svg">
  <sodipodi:namedview
     id="namedview173447"
     pagecolor="#505050"
     bordercolor="#eeeeee"
     borderopacity="1"
     inkscape:showpageshadow="0"
     inkscape:pageopacity="0"
     inkscape:pagecheckerboard="0"
     inkscape:deskcolor="#505050"
     inkscape:document-units="pt"
     showgrid="false"
     inkscape:zoom="2.8284271"
     inkscape:cx="304.9398"
     inkscape:cy="194.45436"
     inkscape:window-width="2560"
     inkscape:window-height="1412"
     inkscape:window-x="1920"
     inkscape:window-y="28"
     inkscape:window-maximized="0"
     inkscape:current-layer="svg173445" />
  <defs
     id="defs173211">
    <style
       type="text/css"
       id="style173209"><![CDATA[
    .svglite line, .svglite polyline, .svglite polygon, .svglite path, .svglite rect, .svglite circle {
      fill: none;
      stroke: #000000;
      stroke-linecap: round;
      stroke-linejoin: round;
      stroke-miterlimit: 10.00;
    }
    .svglite text {
      white-space: pre;
    }
  ]]></style>
  </defs>
  <rect
     width="100%"
     height="100%"
     style="fill:#ffffff;stroke:none"
     id="rect173213"
     x="0"
     y="0" />
  <defs
     id="defs173218">
    <clipPath
       id="cpMC4wMHw0MzIuMDB8MC4wMHwyODguMDA=">
      <rect
         x="0"
         y="0"
         width="432"
         height="288"
         id="rect173215" />
    </clipPath>
  </defs>
  <g
     clip-path="url(#cpMC4wMHw0MzIuMDB8MC4wMHwyODguMDA=)"
     id="g173222">
    <rect
       x="-3.2e-14"
       y="0"
       width="432"
       height="288"
       style="fill:#ffffff;stroke:#ffffff;stroke-width:1.07"
       id="rect173220" />
  </g>
  <defs
     id="defs173227">
    <clipPath
       id="cpNDcuNTR8NDIyLjA0fDI3LjgyfDI1MS43OA==">
      <rect
         x="47.540001"
         y="27.82"
         width="374.48999"
         height="223.96001"
         id="rect173224" />
    </clipPath>
  </defs>
  <g
     clip-path="url(#cpNDcuNTR8NDIyLjA0fDI3LjgyfDI1MS43OA==)"
     id="g173351">
    <rect
       x="47.540001"
       y="27.82"
       width="374.48999"
       height="223.96001"
       style="fill:#ffffff;stroke:none;stroke-width:1.07"
       id="rect173229" />
    <circle
       cx="71.370003"
       cy="241.52"
       r="4.0900002"
       style="fill:#b22222;stroke:none;stroke-width:0.71"
       id="circle173231" />
    <circle
       cx="71.370003"
       cy="241.60001"
       r="4.0900002"
       style="fill:#b22222;stroke:none;stroke-width:0.71"
       id="circle173233" />
    <circle
       cx="105.42"
       cy="241.53"
       r="4.0900002"
       style="fill:#b22222;stroke:none;stroke-width:0.71"
       id="circle173235" />
    <circle
       cx="105.42"
       cy="241.50999"
       r="4.0900002"
       style="fill:#b22222;stroke:none;stroke-width:0.71"
       id="circle173237" />
    <circle
       cx="166.7"
       cy="241.03"
       r="4.0900002"
       style="fill:#b22222;stroke:none;stroke-width:0.71"
       id="circle173239" />
    <circle
       cx="166.7"
       cy="241.21001"
       r="4.0900002"
       style="fill:#b22222;stroke:none;stroke-width:0.71"
       id="circle173241" />
    <circle
       cx="207.55"
       cy="239.55"
       r="4.0900002"
       style="fill:#b22222;stroke:none;stroke-width:0.71"
       id="circle173243" />
    <circle
       cx="207.55"
       cy="240.00999"
       r="4.0900002"
       style="fill:#b22222;stroke:none;stroke-width:0.71"
       id="circle173245" />
    <circle
       cx="234.78999"
       cy="238.8"
       r="4.0900002"
       style="fill:#b22222;stroke:none;stroke-width:0.71"
       id="circle173247" />
    <circle
       cx="234.78999"
       cy="239.16"
       r="4.0900002"
       style="fill:#b22222;stroke:none;stroke-width:0.71"
       id="circle173249" />
    <circle
       cx="268.82999"
       cy="172.58"
       r="4.0900002"
       style="fill:#b22222;stroke:none;stroke-width:0.71"
       id="circle173251" />
    <circle
       cx="268.82999"
       cy="232.88"
       r="4.0900002"
       style="fill:#b22222;stroke:none;stroke-width:0.71"
       id="circle173253" />
    <circle
       cx="302.88"
       cy="125.9"
       r="4.0900002"
       style="fill:#b22222;stroke:none;stroke-width:0.71"
       id="circle173255" />
    <circle
       cx="302.88"
       cy="232.02"
       r="4.0900002"
       style="fill:#b22222;stroke:none;stroke-width:0.71"
       id="circle173257" />
    <circle
       cx="336.92001"
       cy="38"
       r="4.0900002"
       style="fill:#b22222;stroke:none;stroke-width:0.71"
       id="circle173259" />
    <circle
       cx="336.92001"
       cy="220.10001"
       r="4.0900002"
       style="fill:#b22222;stroke:none;stroke-width:0.71"
       id="circle173261" />
    <circle
       cx="370.97"
       cy="87.129997"
       r="4.0900002"
       style="fill:#b22222;stroke:none;stroke-width:0.71"
       id="circle173263" />
    <circle
       cx="370.97"
       cy="222.81"
       r="4.0900002"
       style="fill:#b22222;stroke:none;stroke-width:0.71"
       id="circle173265" />
    <polygon
       points="65.87,244.66 71.37,235.12 76.88,244.66 "
       style="fill:#6ca6cd;stroke:none;stroke-width:0.71"
       id="polygon173267" />
    <polygon
       points="65.87,244.55 71.37,235.01 76.88,244.55 "
       style="fill:#6ca6cd;stroke:none;stroke-width:0.71"
       id="polygon173269" />
    <polygon
       points="99.91,244.37 105.42,234.83 110.93,244.37 "
       style="fill:#6ca6cd;stroke:none;stroke-width:0.71"
       id="polygon173271" />
    <polygon
       points="99.91,244.68 105.42,235.14 110.93,244.68 "
       style="fill:#6ca6cd;stroke:none;stroke-width:0.71"
       id="polygon173273" />
    <polygon
       points="161.19,244.48 166.7,234.94 172.21,244.48 "
       style="fill:#6ca6cd;stroke:none;stroke-width:0.71"
       id="polygon173275" />
    <polygon
       points="161.19,244.66 166.7,235.12 172.21,244.66 "
       style="fill:#6ca6cd;stroke:none;stroke-width:0.71"
       id="polygon173277" />
    <polygon
       points="202.05,244.31 207.55,234.77 213.06,244.31 "
       style="fill:#6ca6cd;stroke:none;stroke-width:0.71"
       id="polygon173279" />
    <polygon
       points="202.05,244.25 207.55,234.71 213.06,244.25 "
       style="fill:#6ca6cd;stroke:none;stroke-width:0.71"
       id="polygon173281" />
    <polygon
       points="229.28,242.21 234.79,232.67 240.3,242.21 "
       style="fill:#6ca6cd;stroke:none;stroke-width:0.71"
       id="polygon173283" />
    <polygon
       points="229.28,242.84 234.79,233.3 240.3,242.84 "
       style="fill:#6ca6cd;stroke:none;stroke-width:0.71"
       id="polygon173285" />
    <polygon
       points="263.33,243.18 268.83,233.64 274.34,243.18 "
       style="fill:#6ca6cd;stroke:none;stroke-width:0.71"
       id="polygon173287" />
    <polygon
       points="263.33,242.66 268.83,233.12 274.34,242.66 "
       style="fill:#6ca6cd;stroke:none;stroke-width:0.71"
       id="polygon173289" />
    <polygon
       points="297.37,244.14 302.88,234.6 308.39,244.14 "
       style="fill:#6ca6cd;stroke:none;stroke-width:0.71"
       id="polygon173291" />
    <polygon
       points="297.37,244.42 302.88,234.88 308.39,244.42 "
       style="fill:#6ca6cd;stroke:none;stroke-width:0.71"
       id="polygon173293" />
    <polygon
       points="331.42,243.58 336.92,234.04 342.43,243.58 "
       style="fill:#6ca6cd;stroke:none;stroke-width:0.71"
       id="polygon173295" />
    <polygon
       points="331.42,242.87 336.92,233.33 342.43,242.87 "
       style="fill:#6ca6cd;stroke:none;stroke-width:0.71"
       id="polygon173297" />
    <polygon
       points="365.46,243.65 370.97,234.11 376.48,243.65 "
       style="fill:#6ca6cd;stroke:none;stroke-width:0.71"
       id="polygon173299" />
    <polygon
       points="365.46,242.88 370.97,233.35 376.48,242.88 "
       style="fill:#6ca6cd;stroke:none;stroke-width:0.71"
       id="polygon173301" />
    <polygon
       points="75.46,237.45 67.29,237.45 67.29,245.63 75.46,245.63 "
       style="fill:#458b00;stroke:none;stroke-width:0.71"
       id="polygon173303" />
    <polygon
       points="75.46,237.49 67.29,237.49 67.29,245.67 75.46,245.67 "
       style="fill:#458b00;stroke:none;stroke-width:0.71"
       id="polygon173305" />
    <polygon
       points="109.51,237.28 101.33,237.28 101.33,245.46 109.51,245.46 "
       style="fill:#458b00;stroke:none;stroke-width:0.71"
       id="polygon173307" />
    <polygon
       points="170.79,236.98 162.61,236.98 162.61,245.15 170.79,245.15 "
       style="fill:#458b00;stroke:none;stroke-width:0.71"
       id="polygon173309" />
    <polygon
       points="170.79,236.79 162.61,236.79 162.61,244.97 170.79,244.97 "
       style="fill:#458b00;stroke:none;stroke-width:0.71"
       id="polygon173311" />
    <polygon
       points="211.64,234.64 203.47,234.64 203.47,242.81 211.64,242.81 "
       style="fill:#458b00;stroke:none;stroke-width:0.71"
       id="polygon173313" />
    <polygon
       points="211.64,234.1 203.47,234.1 203.47,242.28 211.64,242.28 "
       style="fill:#458b00;stroke:none;stroke-width:0.71"
       id="polygon173315" />
    <polygon
       points="238.88,236.65 230.7,236.65 230.7,244.83 238.88,244.83 "
       style="fill:#458b00;stroke:none;stroke-width:0.71"
       id="polygon173317" />
    <polygon
       points="238.88,237.1 230.7,237.1 230.7,245.27 238.88,245.27 "
       style="fill:#458b00;stroke:none;stroke-width:0.71"
       id="polygon173319" />
    <polygon
       points="272.92,215.79 264.75,215.79 264.75,223.97 272.92,223.97 "
       style="fill:#458b00;stroke:none;stroke-width:0.71"
       id="polygon173321" />
    <polygon
       points="272.92,232.71 264.75,232.71 264.75,240.89 272.92,240.89 "
       style="fill:#458b00;stroke:none;stroke-width:0.71"
       id="polygon173323" />
    <polygon
       points="306.97,219.83 298.79,219.83 298.79,228.01 306.97,228.01 "
       style="fill:#458b00;stroke:none;stroke-width:0.71"
       id="polygon173325" />
    <polygon
       points="341.01,128.04 332.84,128.04 332.84,136.21 341.01,136.21 "
       style="fill:#458b00;stroke:none;stroke-width:0.71"
       id="polygon173329" />
    <polygon
       points="341.01,228.2 332.84,228.2 332.84,236.38 341.01,236.38 "
       style="fill:#458b00;stroke:none;stroke-width:0.71"
       id="polygon173331" />
    <polygon
       points="375.06,117.59 366.88,117.59 366.88,125.77 375.06,125.77 "
       style="fill:#458b00;stroke:none;stroke-width:0.71"
       id="polygon173333" />
    <polygon
       points="375.06,221.35 366.88,221.35 366.88,229.53 375.06,229.53 "
       style="fill:#458b00;stroke:none;stroke-width:0.71"
       id="polygon173335" />
    <polyline
       points="71.37,241.52 105.42,241.53 166.70,241.03 207.55,239.55 234.79,238.80 268.83,172.58 302.88,125.90 336.92,38.00 370.97,87.13 "
       style="stroke:#b22222;stroke-width:3.2;stroke-linecap:butt"
       id="polyline173337" />
    <polyline
       points="71.37,241.48 105.42,241.19 166.70,241.30 207.55,241.13 234.79,239.03 268.83,240.00 302.88,240.96 336.92,240.40 370.97,240.47 "
       style="stroke:#6ca6cd;stroke-width:3.2;stroke-linecap:butt"
       id="polyline173339" />
    <polyline
       points="71.37,241.54 105.42,241.37 166.70,241.07 207.55,238.72 234.79,240.74 268.83,219.88 302.88,223.92 336.92,132.12 370.97,121.68 "
       style="stroke:#458b00;stroke-width:3.2;stroke-linecap:butt"
       id="polyline173341" />
    <polyline
       points="71.37,241.60 105.42,241.51 166.70,241.21 207.55,240.01 234.79,239.16 268.83,232.88 302.88,232.02 336.92,220.10 370.97,222.81 "
       style="stroke:#b22222;stroke-width:3.2;stroke-linecap:butt;stroke-dasharray:17.07, 17.07"
       id="polyline173343" />
    <polyline
       points="71.37,241.37 105.42,241.50 166.70,241.48 207.55,241.07 234.79,239.66 268.83,239.48 302.88,241.24 336.92,239.69 370.97,239.70 "
       style="stroke:#6ca6cd;stroke-width:3.2;stroke-linecap:butt;stroke-dasharray:17.07, 17.07"
       id="polyline173345" />
    <polyline
       points="71.37,241.58 166.70,240.88 207.55,238.19 234.79,241.18 268.83,236.80 302.88,238.99 336.92,232.29 370.97,225.44 "
       style="stroke:#458b00;stroke-width:3.2;stroke-linecap:butt;stroke-dasharray:17.07, 17.07"
       id="polyline173347" />
    <polygon
       points="306.97,234.9 298.79,234.9 298.79,243.08 306.97,243.08 "
       style="fill:#458b00;stroke:none;stroke-width:0.71"
       id="polygon173327" />
    <rect
       x="47.540001"
       y="27.82"
       width="374.48999"
       height="223.96001"
       style="stroke:#333333;stroke-width:1.07"
       id="rect173349" />
  </g>
  <g
     clip-path="url(#cpMC4wMHw0MzIuMDB8MC4wMHwyODguMDA=)"
     id="g173443">
    <text
       x="42.610001"
       y="244.77"
       text-anchor="end"
       style="font-size:8.8px;font-family:Arial;fill:#4d4d4d"
       textLength="4.9000001"
       lengthAdjust="spacingAndGlyphs"
       id="text173353">0</text>
    <text
       x="42.610001"
       y="189.53999"
       text-anchor="end"
       style="font-size:8.8px;font-family:Arial;fill:#4d4d4d"
       textLength="19.58"
       lengthAdjust="spacingAndGlyphs"
       id="text173355">3000</text>
    <text
       x="42.610001"
       y="134.3"
       text-anchor="end"
       style="font-size:8.8px;font-family:Arial;fill:#4d4d4d"
       textLength="19.58"
       lengthAdjust="spacingAndGlyphs"
       id="text173357">6000</text>
    <text
       x="42.610001"
       y="79.059998"
       text-anchor="end"
       style="font-size:8.8px;font-family:Arial;fill:#4d4d4d"
       textLength="19.58"
       lengthAdjust="spacingAndGlyphs"
       id="text173359">9000</text>
    <polyline
       points="44.80,241.62 47.54,241.62 "
       style="stroke:#333333;stroke-width:1.07;stroke-linecap:butt"
       id="polyline173361" />
    <polyline
       points="44.80,186.38 47.54,186.38 "
       style="stroke:#333333;stroke-width:1.07;stroke-linecap:butt"
       id="polyline173363" />
    <polyline
       points="44.80,131.15 47.54,131.15 "
       style="stroke:#333333;stroke-width:1.07;stroke-linecap:butt"
       id="polyline173365" />
    <polyline
       points="44.80,75.91 47.54,75.91 "
       style="stroke:#333333;stroke-width:1.07;stroke-linecap:butt"
       id="polyline173367" />
    <polyline
       points="64.57,254.52 64.57,251.78 "
       style="stroke:#333333;stroke-width:1.07;stroke-linecap:butt"
       id="polyline173369" />
    <polyline
       points="132.66,254.52 132.66,251.78 "
       style="stroke:#333333;stroke-width:1.07;stroke-linecap:butt"
       id="polyline173371" />
    <polyline
       points="200.75,254.52 200.75,251.78 "
       style="stroke:#333333;stroke-width:1.07;stroke-linecap:butt"
       id="polyline173373" />
    <polyline
       points="268.83,254.52 268.83,251.78 "
       style="stroke:#333333;stroke-width:1.07;stroke-linecap:butt"
       id="polyline173375" />
    <polyline
       points="336.92,254.52 336.92,251.78 "
       style="stroke:#333333;stroke-width:1.07;stroke-linecap:butt"
       id="polyline173377" />
    <polyline
       points="405.01,254.52 405.01,251.78 "
       style="stroke:#333333;stroke-width:1.07;stroke-linecap:butt"
       id="polyline173379" />
    <text
       x="64.57"
       y="263.01999"
       text-anchor="middle"
       style="font-size:8.8px;font-family:Arial;fill:#4d4d4d"
       textLength="4.9000001"
       lengthAdjust="spacingAndGlyphs"
       id="text173381">0</text>
    <text
       x="132.66"
       y="263.01999"
       text-anchor="middle"
       style="font-size:8.8px;font-family:Arial;fill:#4d4d4d"
       textLength="9.79"
       lengthAdjust="spacingAndGlyphs"
       id="text173383">10</text>
    <text
       x="200.75"
       y="263.01999"
       text-anchor="middle"
       style="font-size:8.8px;font-family:Arial;fill:#4d4d4d"
       textLength="9.79"
       lengthAdjust="spacingAndGlyphs"
       id="text173385">20</text>
    <text
       x="268.82999"
       y="263.01999"
       text-anchor="middle"
       style="font-size:8.8px;font-family:Arial;fill:#4d4d4d"
       textLength="9.79"
       lengthAdjust="spacingAndGlyphs"
       id="text173387">30</text>
    <text
       x="336.92001"
       y="263.01999"
       text-anchor="middle"
       style="font-size:8.8px;font-family:Arial;fill:#4d4d4d"
       textLength="9.79"
       lengthAdjust="spacingAndGlyphs"
       id="text173389">40</text>
    <text
       x="405.01001"
       y="263.01999"
       text-anchor="middle"
       style="font-size:8.8px;font-family:Arial;fill:#4d4d4d"
       textLength="9.79"
       lengthAdjust="spacingAndGlyphs"
       id="text173391">50</text>
    <text
       x="234.78999"
       y="275.60001"
       text-anchor="middle"
       style="font-size:11px;font-family:Arial"
       textLength="54.43"
       lengthAdjust="spacingAndGlyphs"
       id="text173393"
       transform="translate(0,1.5)">generation</text>
    <text
       transform="rotate(-90,78.075,61.725)"
       text-anchor="middle"
       style="font-size:11px;font-family:Arial"
       textLength="191.33"
       lengthAdjust="spacingAndGlyphs"
       id="text173395">normalized reads (per million piRNAs)</text>
    <rect
       x="52.139999"
       y="7.25"
       width="17.280001"
       height="17.280001"
       style="fill:#ffffff;stroke:none;stroke-width:1.07"
       id="rect173401" />
    <rect
       x="52.139999"
       y="79.540001"
       width="17.280001"
       height="17.280001"
       style="fill:#ffffff;stroke:none;stroke-width:1.07"
       id="rect173417" />
    <g
       id="g173991"
       transform="translate(-27.212829,-24.776307)">
      <text
         x="52.139999"
         y="72.839996"
         style="font-size:11px;font-family:Arial"
         textLength="45.860001"
         lengthAdjust="spacingAndGlyphs"
         id="text173415"
         transform="translate(30.167556,-3.6774093)">replicate</text>
      <circle
         cx="90.947556"
         cy="84.502594"
         r="4.0900002"
         style="fill:#b22222;stroke:none;stroke-width:0.71"
         id="circle173419" />
      <line
         x1="84.027557"
         y1="84.502594"
         x2="97.857559"
         y2="84.502594"
         style="stroke:#b22222;stroke-width:3.2;stroke-linecap:butt"
         id="line173421" />
      <polygon
         points="66.28,108.64 55.27,108.64 60.78,99.1 "
         style="fill:#6ca6cd;stroke:none;stroke-width:0.71"
         id="polygon173425"
         transform="translate(30.167556,-3.6774093)" />
      <line
         x1="84.027557"
         y1="101.78259"
         x2="97.857559"
         y2="101.78259"
         style="stroke:#6ca6cd;stroke-width:3.2;stroke-linecap:butt"
         id="line173427" />
      <polygon
         points="56.69,126.83 64.87,126.83 64.87,118.65 56.69,118.65 "
         style="fill:#458b00;stroke:none;stroke-width:0.71"
         id="polygon173431"
         transform="translate(30.167556,-3.6774093)" />
      <line
         x1="84.027557"
         y1="119.06259"
         x2="97.857559"
         y2="119.06259"
         style="stroke:#458b00;stroke-width:3.2;stroke-linecap:butt"
         id="line173433" />
      <text
         x="74.900002"
         y="91.330002"
         style="font-size:8.8px;font-family:Arial"
         textLength="4.9000001"
         lengthAdjust="spacingAndGlyphs"
         id="text173435"
         transform="translate(30.167556,-3.6774093)">1</text>
      <text
         x="74.900002"
         y="108.61"
         style="font-size:8.8px;font-family:Arial"
         textLength="4.9000001"
         lengthAdjust="spacingAndGlyphs"
         id="text173437"
         transform="translate(30.167556,-3.6774093)">2</text>
      <text
         x="74.900002"
         y="125.89"
         style="font-size:8.8px;font-family:Arial"
         textLength="4.9000001"
         lengthAdjust="spacingAndGlyphs"
         id="text173439"
         transform="translate(30.167556,-3.6774093)">3</text>
    </g>
    <g
       id="g174009">
      <g
         id="g173998"
         transform="translate(-40.386473,-27.612113)">
        <text
           x="52.139999"
           y="0.56"
           style="font-size:11px;font-family:Arial"
           textLength="50.73"
           lengthAdjust="spacingAndGlyphs"
           id="text173399"
           transform="translate(43.883751,144.89242)">RNA Type</text>
        <line
           x1="96.763107"
           y1="161.90814"
           x2="110.59311"
           y2="161.90814"
           style="stroke-width:3.2;stroke-linecap:butt"
           id="line173403" />
        <line
           x1="96.763107"
           y1="179.18814"
           x2="110.59311"
           y2="179.18814"
           style="stroke-width:3.2;stroke-linecap:butt;stroke-dasharray:17.07, 17.07"
           id="line173407" />
        <text
           x="74.900002"
           y="19.049999"
           style="font-size:8.8px;font-family:Arial"
           textLength="25.42"
           lengthAdjust="spacingAndGlyphs"
           id="text173409"
           transform="translate(42.903108,146.01814)">piRNA</text>
        <text
           x="74.900002"
           y="36.330002"
           style="font-size:8.8px;font-family:Arial"
           textLength="24.92"
           lengthAdjust="spacingAndGlyphs"
           id="text173411"
           transform="translate(42.903108,146.01814)">siRNA</text>
      </g>
      <rect
         style="fill:#fdfdfd;fill-opacity:1;stroke:none;stroke-width:1.00778;stroke-linecap:round;stroke-linejoin:round;stroke-dasharray:2.28432, 2.28432;stroke-dashoffset:0.685291"
         id="rect174000"
         width="3.2483783"
         height="3.2820301"
         x="63.925632"
         y="149.93501" />
    </g>
  </g>
</svg>
